<svg width="34" height="34" viewBox="0 0 34 34" fill="none" xmlns="http://www.w3.org/2000/svg">
<path d="M11.8428 12.4495C9.32969 9.93642 5.25494 9.93642 2.74183 12.4495C0.228714 14.9626 0.228714 19.0374 2.74183 21.5505C5.25494 24.0636 9.32969 24.0636 11.8428 21.5505C14.3559 19.0374 14.3559 14.9626 11.8428 12.4495ZM7.29231 22.2913C5.88897 22.2913 4.54311 21.7338 3.5508 20.7415C2.55849 19.7492 2.00102 18.4034 2.00102 17C2.00102 15.5967 2.55849 14.2508 3.5508 13.2585C4.54311 12.2662 5.88897 11.7087 7.29231 11.7087C8.69565 11.7087 10.0415 12.2662 11.0338 13.2585C12.0261 14.2508 12.5836 15.5967 12.5836 17C12.5836 18.4034 12.0261 19.7492 11.0338 20.7415C10.0415 21.7338 8.69565 22.2913 7.29231 22.2913ZM7.78694 18.1991C7.94419 18.1308 8.08621 18.0317 8.20467 17.9078C8.43708 17.6646 8.56506 17.3402 8.56122 17.0038C8.55737 16.6675 8.42201 16.346 8.1841 16.1082C7.94619 15.8704 7.62465 15.7352 7.2883 15.7315C6.95195 15.7278 6.62752 15.856 6.38448 16.0885C6.2606 16.207 6.16164 16.3491 6.09343 16.5064C6.02521 16.6637 5.98911 16.833 5.98724 17.0044C5.98536 17.1759 6.01776 17.346 6.08252 17.5047C6.14728 17.6634 6.2431 17.8076 6.36436 17.9288C6.48562 18.05 6.62987 18.1458 6.78864 18.2105C6.94741 18.2752 7.11751 18.3075 7.28894 18.3055C7.46037 18.3035 7.62968 18.2674 7.78694 18.1991ZM21.5505 31.2582C24.0636 28.7451 24.0636 24.6703 21.5505 22.1572C19.0374 19.6441 14.9626 19.6441 12.4495 22.1572C9.93642 24.6703 9.93642 28.7451 12.4495 31.2582C14.9626 33.7713 19.0374 33.7713 21.5505 31.2582ZM17 31.999C15.5967 31.999 14.2508 31.4415 13.2585 30.4492C12.2662 29.4569 11.7087 28.1111 11.7087 26.7077C11.7087 25.3044 12.2662 23.9585 13.2585 22.9662C14.2508 21.9739 15.5967 21.4164 17 21.4164C18.4034 21.4164 19.7492 21.9739 20.7415 22.9662C21.7338 23.9585 22.2913 25.3044 22.2913 26.7077C22.2913 28.1111 21.7338 29.4569 20.7415 30.4492C19.7492 31.4415 18.4034 31.999 17 31.999ZM17.4946 27.9068C17.6519 27.8385 17.7939 27.7394 17.9124 27.6155C18.1448 27.3723 18.2728 27.0479 18.2689 26.7115C18.2651 26.3752 18.1297 26.0537 17.8918 25.8159C17.6539 25.5781 17.3324 25.4429 16.996 25.4392C16.6597 25.4355 16.3352 25.5637 16.0922 25.7962C15.9683 25.9147 15.8694 26.0568 15.8011 26.2141C15.7329 26.3714 15.6968 26.5407 15.6949 26.7122C15.6931 26.8836 15.7255 27.0537 15.7902 27.2124C15.855 27.3711 15.9508 27.5153 16.0721 27.6365C16.1933 27.7577 16.3376 27.8535 16.4963 27.9182C16.6551 27.9829 16.8252 28.0152 16.9966 28.0132C17.1681 28.0113 17.3374 27.9751 17.4946 27.9068ZM21.5505 2.74183C19.0374 0.228714 14.9626 0.228714 12.4495 2.74183C9.93642 5.25494 9.93642 9.32969 12.4495 11.8428C14.9626 14.3559 19.0374 14.3559 21.5505 11.8428C24.0636 9.32969 24.0636 5.25494 21.5505 2.74183ZM17 12.5836C15.5967 12.5836 14.2508 12.0261 13.2585 11.0338C12.2662 10.0415 11.7087 8.69565 11.7087 7.29231C11.7087 5.88897 12.2662 4.54311 13.2585 3.5508C14.2508 2.55849 15.5967 2.00102 17 2.00102C18.4034 2.00102 19.7492 2.55849 20.7415 3.5508C21.7338 4.54311 22.2913 5.88897 22.2913 7.29231C22.2913 8.69565 21.7338 10.0415 20.7415 11.0338C19.7492 12.0261 18.4034 12.5836 17 12.5836ZM17.4946 8.49135C17.6519 8.42306 17.7939 8.32404 17.9124 8.2001C18.1448 7.95693 18.2728 7.63244 18.2689 7.2961C18.2651 6.95975 18.1297 6.63827 17.8918 6.40048C17.6539 6.16269 17.3324 6.02749 16.996 6.02381C16.6597 6.02014 16.3352 6.14828 16.0922 6.38081C15.9683 6.49933 15.8694 6.64141 15.8011 6.79869C15.7329 6.95598 15.6968 7.12531 15.6949 7.29674C15.6931 7.46817 15.7255 7.63825 15.7902 7.79699C15.855 7.95573 15.9508 8.09994 16.0721 8.22113C16.1933 8.34233 16.3376 8.43808 16.4963 8.50276C16.6551 8.56745 16.8252 8.59976 16.9966 8.5978C17.1681 8.59584 17.3374 8.55965 17.4946 8.49135ZM31.2582 12.4495C28.7451 9.93642 24.6703 9.93642 22.1572 12.4495C19.6441 14.9626 19.6441 19.0374 22.1572 21.5505C24.6703 24.0636 28.7451 24.0636 31.2582 21.5505C33.7713 19.0374 33.7713 14.9626 31.2582 12.4495ZM26.7077 22.2913C25.3044 22.2913 23.9585 21.7338 22.9662 20.7415C21.9739 19.7492 21.4164 18.4034 21.4164 17C21.4164 15.5967 21.9739 14.2508 22.9662 13.2585C23.9585 12.2662 25.3044 11.7087 26.7077 11.7087C28.1111 11.7087 29.4569 12.2662 30.4492 13.2585C31.4415 14.2508 31.999 15.5967 31.999 17C31.999 18.4034 31.4415 19.7492 30.4492 20.7415C29.4569 21.7338 28.1111 22.2913 26.7077 22.2913ZM27.2024 18.1991C27.3596 18.1308 27.5016 18.0317 27.6201 17.9078C27.8525 17.6646 27.9805 17.3402 27.9766 17.0038C27.9728 16.6675 27.8374 16.346 27.5995 16.1082C27.3616 15.8704 27.0401 15.7352 26.7037 15.7315C26.3674 15.7278 26.0429 15.856 25.7999 16.0885C25.676 16.207 25.5771 16.3491 25.5088 16.5064C25.4406 16.6637 25.4045 16.833 25.4026 17.0044C25.4008 17.1759 25.4332 17.346 25.4979 17.5047C25.5627 17.6634 25.6585 17.8076 25.7798 17.9288C25.901 18.05 26.0453 18.1458 26.2041 18.2105C26.3628 18.2752 26.5329 18.3075 26.7044 18.3055C26.8758 18.3035 27.0451 18.2674 27.2024 18.1991Z" fill="#0D1117" stroke="#0D1117" stroke-width="0.286016"/>
</svg>
