<svg width="144" height="34" viewBox="0 0 144 34" fill="none" xmlns="http://www.w3.org/2000/svg">
<path d="M11.8428 12.4495C9.32969 9.93642 5.25494 9.93642 2.74183 12.4495C0.228714 14.9626 0.228714 19.0374 2.74183 21.5505C5.25494 24.0636 9.32969 24.0636 11.8428 21.5505C14.3559 19.0374 14.3559 14.9626 11.8428 12.4495ZM7.29231 22.2913C5.88897 22.2913 4.54311 21.7338 3.5508 20.7415C2.55849 19.7492 2.00102 18.4034 2.00102 17C2.00102 15.5967 2.55849 14.2508 3.5508 13.2585C4.54311 12.2662 5.88897 11.7087 7.29231 11.7087C8.69565 11.7087 10.0415 12.2662 11.0338 13.2585C12.0261 14.2508 12.5836 15.5967 12.5836 17C12.5836 18.4034 12.0261 19.7492 11.0338 20.7415C10.0415 21.7338 8.69565 22.2913 7.29231 22.2913ZM7.78694 18.1991C7.94419 18.1308 8.08621 18.0317 8.20467 17.9078C8.43708 17.6646 8.56506 17.3402 8.56122 17.0038C8.55737 16.6675 8.42201 16.346 8.1841 16.1082C7.94619 15.8704 7.62465 15.7352 7.2883 15.7315C6.95195 15.7278 6.62752 15.856 6.38448 16.0885C6.2606 16.207 6.16164 16.3491 6.09343 16.5064C6.02521 16.6637 5.98911 16.833 5.98724 17.0044C5.98536 17.1759 6.01776 17.346 6.08252 17.5047C6.14728 17.6634 6.2431 17.8076 6.36436 17.9288C6.48562 18.05 6.62987 18.1458 6.78864 18.2105C6.94741 18.2752 7.11751 18.3075 7.28894 18.3055C7.46037 18.3035 7.62968 18.2674 7.78694 18.1991ZM21.5505 31.2582C24.0636 28.7451 24.0636 24.6703 21.5505 22.1572C19.0374 19.6441 14.9626 19.6441 12.4495 22.1572C9.93642 24.6703 9.93642 28.7451 12.4495 31.2582C14.9626 33.7713 19.0374 33.7713 21.5505 31.2582ZM17 31.999C15.5967 31.999 14.2508 31.4415 13.2585 30.4492C12.2662 29.4569 11.7087 28.1111 11.7087 26.7077C11.7087 25.3044 12.2662 23.9585 13.2585 22.9662C14.2508 21.9739 15.5967 21.4164 17 21.4164C18.4034 21.4164 19.7492 21.9739 20.7415 22.9662C21.7338 23.9585 22.2913 25.3044 22.2913 26.7077C22.2913 28.1111 21.7338 29.4569 20.7415 30.4492C19.7492 31.4415 18.4034 31.999 17 31.999ZM17.4946 27.9068C17.6519 27.8385 17.7939 27.7394 17.9124 27.6155C18.1448 27.3723 18.2728 27.0479 18.2689 26.7115C18.2651 26.3752 18.1297 26.0537 17.8918 25.8159C17.6539 25.5781 17.3324 25.4429 16.996 25.4392C16.6597 25.4355 16.3352 25.5637 16.0922 25.7962C15.9683 25.9147 15.8694 26.0568 15.8011 26.2141C15.7329 26.3714 15.6968 26.5407 15.6949 26.7122C15.6931 26.8836 15.7255 27.0537 15.7902 27.2124C15.855 27.3711 15.9508 27.5153 16.0721 27.6365C16.1933 27.7577 16.3376 27.8535 16.4963 27.9182C16.6551 27.9829 16.8252 28.0152 16.9966 28.0132C17.1681 28.0112 17.3374 27.9751 17.4946 27.9068ZM21.5505 2.74183C19.0374 0.228714 14.9626 0.228714 12.4495 2.74183C9.93642 5.25494 9.93642 9.32969 12.4495 11.8428C14.9626 14.3559 19.0374 14.3559 21.5505 11.8428C24.0636 9.32969 24.0636 5.25494 21.5505 2.74183ZM17 12.5836C15.5967 12.5836 14.2508 12.0261 13.2585 11.0338C12.2662 10.0415 11.7087 8.69565 11.7087 7.29231C11.7087 5.88897 12.2662 4.54311 13.2585 3.5508C14.2508 2.55849 15.5967 2.00102 17 2.00102C18.4034 2.00102 19.7492 2.55849 20.7415 3.5508C21.7338 4.54311 22.2913 5.88897 22.2913 7.29231C22.2913 8.69565 21.7338 10.0415 20.7415 11.0338C19.7492 12.0261 18.4034 12.5836 17 12.5836ZM17.4946 8.49135C17.6519 8.42306 17.7939 8.32404 17.9124 8.2001C18.1448 7.95693 18.2728 7.63244 18.2689 7.2961C18.2651 6.95975 18.1297 6.63827 17.8918 6.40048C17.6539 6.16269 17.3324 6.02749 16.996 6.02381C16.6597 6.02014 16.3352 6.14828 16.0922 6.38081C15.9683 6.49933 15.8694 6.64141 15.8011 6.79869C15.7329 6.95598 15.6968 7.12531 15.6949 7.29674C15.6931 7.46817 15.7255 7.63825 15.7902 7.79699C15.855 7.95573 15.9508 8.09994 16.0721 8.22113C16.1933 8.34233 16.3376 8.43808 16.4963 8.50276C16.6551 8.56745 16.8252 8.59976 16.9966 8.5978C17.1681 8.59584 17.3374 8.55965 17.4946 8.49135ZM31.2582 12.4495C28.7451 9.93642 24.6703 9.93642 22.1572 12.4495C19.6441 14.9626 19.6441 19.0374 22.1572 21.5505C24.6703 24.0636 28.7451 24.0636 31.2582 21.5505C33.7713 19.0374 33.7713 14.9626 31.2582 12.4495ZM26.7077 22.2913C25.3044 22.2913 23.9585 21.7338 22.9662 20.7415C21.9739 19.7492 21.4164 18.4034 21.4164 17C21.4164 15.5967 21.9739 14.2508 22.9662 13.2585C23.9585 12.2662 25.3044 11.7087 26.7077 11.7087C28.1111 11.7087 29.4569 12.2662 30.4492 13.2585C31.4415 14.2508 31.999 15.5967 31.999 17C31.999 18.4034 31.4415 19.7492 30.4492 20.7415C29.4569 21.7338 28.1111 22.2913 26.7077 22.2913ZM27.2023 18.1991C27.3596 18.1308 27.5016 18.0317 27.6201 17.9078C27.8525 17.6646 27.9805 17.3402 27.9766 17.0038C27.9728 16.6675 27.8374 16.346 27.5995 16.1082C27.3616 15.8704 27.0401 15.7352 26.7037 15.7315C26.3674 15.7278 26.0429 15.856 25.7999 16.0885C25.676 16.207 25.5771 16.3491 25.5088 16.5064C25.4406 16.6637 25.4045 16.833 25.4026 17.0044C25.4008 17.1759 25.4332 17.346 25.4979 17.5047C25.5627 17.6634 25.6585 17.8076 25.7798 17.9288C25.901 18.05 26.0453 18.1458 26.2041 18.2105C26.3628 18.2752 26.5329 18.3075 26.7044 18.3055C26.8758 18.3035 27.0451 18.2674 27.2023 18.1991Z" fill="white" stroke="white" stroke-width="0.286016"/>
<path d="M44.48 16V1.42001H55.26V4.48001H47.48L48.06 3.90001V8.22001L47.48 7.64002H54.46V10.52H47.48L48.06 9.94002V16H44.48ZM61.3767 16.2C60.5501 16.2 59.8034 16.08 59.1367 15.84C58.4701 15.5867 57.8901 15.22 57.3967 14.74C56.9167 14.2467 56.5434 13.6533 56.2767 12.96C56.0234 12.2667 55.8967 11.48 55.8967 10.6C55.8967 9.48002 56.1101 8.50668 56.5367 7.68002C56.9634 6.84001 57.5834 6.18668 58.3967 5.72002C59.2234 5.24002 60.2167 5.00002 61.3767 5.00002C62.2034 5.00002 62.9501 5.12668 63.6167 5.38001C64.2834 5.62001 64.8567 5.98668 65.3367 6.48002C65.8167 6.96001 66.1834 7.54668 66.4367 8.24002C66.7034 8.92002 66.8367 9.70668 66.8367 10.6C66.8367 11.7067 66.6234 12.68 66.1967 13.52C65.7701 14.36 65.1501 15.02 64.3367 15.5C63.5234 15.9667 62.5367 16.2 61.3767 16.2ZM61.3767 13.46C61.7901 13.46 62.1501 13.36 62.4567 13.16C62.7634 12.96 63.0034 12.6467 63.1767 12.22C63.3501 11.7933 63.4367 11.2533 63.4367 10.6C63.4367 10.1067 63.3834 9.68001 63.2767 9.32001C63.1834 8.94668 63.0434 8.64668 62.8567 8.42002C62.6834 8.18002 62.4701 8.00668 62.2167 7.90001C61.9767 7.78001 61.6967 7.72001 61.3767 7.72001C60.9634 7.72001 60.5967 7.82668 60.2767 8.04001C59.9701 8.24001 59.7301 8.55335 59.5567 8.98002C59.3967 9.39335 59.3167 9.93335 59.3167 10.6C59.3167 11.0933 59.3634 11.5267 59.4567 11.9C59.5501 12.26 59.6834 12.56 59.8567 12.8C60.0434 13.0267 60.2634 13.1933 60.5167 13.3C60.7834 13.4067 61.0701 13.46 61.3767 13.46ZM68.2475 16V5.20001H71.3075L71.4475 6.84001H71.5675C71.8075 6.16001 72.1808 5.69335 72.6875 5.44002C73.2075 5.18668 73.7942 5.06001 74.4475 5.06001C74.5675 5.06001 74.6742 5.06001 74.7675 5.06001C74.8742 5.06001 74.9742 5.06001 75.0675 5.06001V8.24002C74.9875 8.24002 74.8875 8.24002 74.7675 8.24002C74.6608 8.22668 74.5342 8.22001 74.3875 8.22001C73.7075 8.22001 73.1675 8.32001 72.7675 8.52002C72.3675 8.70668 72.0808 8.98002 71.9075 9.34002C71.7342 9.68668 71.6408 10.12 71.6275 10.64V16H68.2475ZM86.7708 16.2C85.6241 16.2 84.5974 16.02 83.6908 15.66C82.7974 15.3 82.0374 14.7933 81.4108 14.14C80.7974 13.4733 80.3241 12.68 79.9908 11.76C79.6708 10.84 79.5108 9.82001 79.5108 8.70002C79.5108 7.50002 79.6841 6.44001 80.0308 5.52001C80.3908 4.60001 80.8974 3.82001 81.5508 3.18001C82.2041 2.54001 82.9841 2.05335 83.8908 1.72001C84.8108 1.38668 85.8241 1.22001 86.9308 1.22001C88.2641 1.22001 89.4241 1.44001 90.4108 1.88001C91.3974 2.30668 92.1774 2.90668 92.7508 3.68001C93.3241 4.44001 93.6641 5.33335 93.7708 6.36001H90.0708C89.9774 5.92001 89.7908 5.54668 89.5108 5.24001C89.2308 4.93335 88.8708 4.70001 88.4308 4.54001C88.0041 4.36668 87.5041 4.28001 86.9308 4.28001C86.1841 4.28001 85.5241 4.44001 84.9508 4.76001C84.3908 5.06668 83.9574 5.54668 83.6508 6.20002C83.3441 6.85335 83.1908 7.68668 83.1908 8.70002C83.1908 9.46001 83.2708 10.1267 83.4308 10.7C83.6041 11.2733 83.8508 11.7467 84.1708 12.12C84.4908 12.48 84.8774 12.7533 85.3308 12.94C85.7841 13.1267 86.2841 13.22 86.8308 13.22C87.5774 13.22 88.2108 13.0933 88.7308 12.84C89.2641 12.5867 89.6708 12.2267 89.9508 11.76C90.2441 11.2933 90.3908 10.74 90.3908 10.1V9.54001L91.3308 10.66H86.6908V8.14002H94.0108V9.72002C94.0108 10.6933 93.8374 11.58 93.4908 12.38C93.1441 13.18 92.6508 13.86 92.0108 14.42C91.3841 14.98 90.6241 15.42 89.7308 15.74C88.8508 16.0467 87.8641 16.2 86.7708 16.2ZM100.47 16.2C99.643 16.2 98.8964 16.08 98.2297 15.84C97.563 15.5867 96.983 15.22 96.4897 14.74C96.0097 14.2467 95.6364 13.6533 95.3697 12.96C95.1164 12.2667 94.9897 11.48 94.9897 10.6C94.9897 9.48002 95.203 8.50668 95.6297 7.68002C96.0564 6.84001 96.6764 6.18668 97.4897 5.72002C98.3164 5.24002 99.3097 5.00002 100.47 5.00002C101.296 5.00002 102.043 5.12668 102.71 5.38001C103.376 5.62001 103.95 5.98668 104.43 6.48002C104.91 6.96001 105.276 7.54668 105.53 8.24002C105.796 8.92002 105.93 9.70668 105.93 10.6C105.93 11.7067 105.716 12.68 105.29 13.52C104.863 14.36 104.243 15.02 103.43 15.5C102.616 15.9667 101.63 16.2 100.47 16.2ZM100.47 13.46C100.883 13.46 101.243 13.36 101.55 13.16C101.856 12.96 102.096 12.6467 102.27 12.22C102.443 11.7933 102.53 11.2533 102.53 10.6C102.53 10.1067 102.476 9.68001 102.37 9.32001C102.276 8.94668 102.136 8.64668 101.95 8.42002C101.776 8.18002 101.563 8.00668 101.31 7.90001C101.07 7.78001 100.79 7.72001 100.47 7.72001C100.056 7.72001 99.6897 7.82668 99.3697 8.04001C99.063 8.24001 98.823 8.55335 98.6497 8.98002C98.4897 9.39335 98.4097 9.93335 98.4097 10.6C98.4097 11.0933 98.4564 11.5267 98.5497 11.9C98.643 12.26 98.7764 12.56 98.9497 12.8C99.1364 13.0267 99.3564 13.1933 99.6097 13.3C99.8764 13.4067 100.163 13.46 100.47 13.46ZM112.416 16.2C111.589 16.2 110.842 16.08 110.176 15.84C109.509 15.5867 108.929 15.22 108.436 14.74C107.956 14.2467 107.582 13.6533 107.316 12.96C107.062 12.2667 106.936 11.48 106.936 10.6C106.936 9.48002 107.149 8.50668 107.576 7.68002C108.002 6.84001 108.622 6.18668 109.436 5.72002C110.262 5.24002 111.256 5.00002 112.416 5.00002C113.242 5.00002 113.989 5.12668 114.656 5.38001C115.322 5.62001 115.896 5.98668 116.376 6.48002C116.856 6.96001 117.222 7.54668 117.476 8.24002C117.742 8.92002 117.876 9.70668 117.876 10.6C117.876 11.7067 117.662 12.68 117.236 13.52C116.809 14.36 116.189 15.02 115.376 15.5C114.562 15.9667 113.576 16.2 112.416 16.2ZM112.416 13.46C112.829 13.46 113.189 13.36 113.496 13.16C113.802 12.96 114.042 12.6467 114.216 12.22C114.389 11.7933 114.476 11.2533 114.476 10.6C114.476 10.1067 114.422 9.68001 114.316 9.32001C114.222 8.94668 114.082 8.64668 113.896 8.42002C113.722 8.18002 113.509 8.00668 113.256 7.90001C113.016 7.78001 112.736 7.72001 112.416 7.72001C112.002 7.72001 111.636 7.82668 111.316 8.04001C111.009 8.24001 110.769 8.55335 110.596 8.98002C110.436 9.39335 110.356 9.93335 110.356 10.6C110.356 11.0933 110.402 11.5267 110.496 11.9C110.589 12.26 110.722 12.56 110.896 12.8C111.082 13.0267 111.302 13.1933 111.556 13.3C111.822 13.4067 112.109 13.46 112.416 13.46ZM123.142 16.2C122.502 16.2 121.922 16.0867 121.402 15.86C120.882 15.62 120.429 15.2667 120.042 14.8C119.669 14.3333 119.382 13.7533 119.182 13.06C118.982 12.3533 118.882 11.5333 118.882 10.6C118.882 9.34668 119.055 8.30668 119.402 7.48001C119.762 6.64001 120.262 6.02001 120.902 5.62001C121.542 5.20668 122.289 5.00002 123.142 5.00002C123.689 5.00002 124.175 5.08001 124.602 5.24001C125.042 5.40001 125.415 5.62668 125.722 5.92002C126.042 6.21335 126.289 6.56001 126.462 6.96001H126.642V1.42001H130.022L130.002 16H126.762L126.642 14.24H126.462C126.209 14.8267 125.795 15.3 125.222 15.66C124.649 16.02 123.955 16.2 123.142 16.2ZM124.462 13.48C124.969 13.48 125.375 13.3667 125.682 13.14C125.989 12.9 126.215 12.6 126.362 12.24C126.522 11.8667 126.602 11.48 126.602 11.08V10.12C126.602 9.80002 126.555 9.50001 126.462 9.22001C126.382 8.94001 126.255 8.68668 126.082 8.46002C125.922 8.23335 125.702 8.05335 125.422 7.92001C125.155 7.78668 124.835 7.72001 124.462 7.72001C124.035 7.72001 123.662 7.82001 123.342 8.02001C123.022 8.22002 122.769 8.53335 122.582 8.96001C122.409 9.37335 122.322 9.92002 122.322 10.6C122.322 11.2667 122.409 11.8133 122.582 12.24C122.769 12.6667 123.022 12.98 123.342 13.18C123.662 13.38 124.035 13.48 124.462 13.48Z" fill="white"/>
<path d="M44.48 33V18.42H55.26V21.48H47.48L48.06 20.9V25.22L47.48 24.64H54.46V27.52H47.48L48.06 26.94V33H44.48ZM56.5944 33V22.2H59.9744V33H56.5944ZM56.5944 20.94V18.42H59.9744V20.94H56.5944ZM62.017 33V22.2H65.077L65.217 23.84H65.337C65.577 23.16 65.9504 22.6933 66.457 22.44C66.977 22.1867 67.5637 22.06 68.217 22.06C68.337 22.06 68.4437 22.06 68.537 22.06C68.6437 22.06 68.7437 22.06 68.837 22.06V25.24C68.757 25.24 68.657 25.24 68.537 25.24C68.4304 25.2267 68.3037 25.22 68.157 25.22C67.477 25.22 66.937 25.32 66.537 25.52C66.137 25.7067 65.8504 25.98 65.677 26.34C65.5037 26.6867 65.4104 27.12 65.397 27.64V33H62.017ZM74.3025 33.2C72.6892 33.2 71.4425 32.8667 70.5625 32.2C69.6825 31.5333 69.2492 30.66 69.2625 29.58H72.6025C72.6158 30.0733 72.7892 30.4267 73.1225 30.64C73.4692 30.84 73.8892 30.94 74.3825 30.94C74.9158 30.94 75.3092 30.8533 75.5625 30.68C75.8292 30.5067 75.9625 30.28 75.9625 30C75.9625 29.7067 75.8892 29.4933 75.7425 29.36C75.5958 29.2133 75.3692 29.1067 75.0625 29.04C74.7692 28.9733 74.3892 28.9133 73.9225 28.86C73.3358 28.7667 72.7758 28.66 72.2425 28.54C71.7225 28.4067 71.2625 28.22 70.8625 27.98C70.4625 27.74 70.1425 27.42 69.9025 27.02C69.6625 26.62 69.5425 26.1133 69.5425 25.5C69.5425 24.7133 69.7492 24.06 70.1625 23.54C70.5758 23.02 71.1425 22.6333 71.8625 22.38C72.5958 22.1267 73.4492 22 74.4225 22C75.3692 22 76.1892 22.14 76.8825 22.42C77.5892 22.6867 78.1358 23.0733 78.5225 23.58C78.9092 24.0867 79.1158 24.7 79.1425 25.42H75.8425C75.8292 25.1667 75.7625 24.96 75.6425 24.8C75.5225 24.6267 75.3492 24.4933 75.1225 24.4C74.9092 24.3067 74.6425 24.26 74.3225 24.26C73.8558 24.26 73.5025 24.3467 73.2625 24.52C73.0358 24.68 72.9225 24.8933 72.9225 25.16C72.9225 25.3867 72.9958 25.5733 73.1425 25.72C73.2892 25.8533 73.5158 25.96 73.8225 26.04C74.1292 26.1067 74.5225 26.1733 75.0025 26.24C75.5625 26.3067 76.1025 26.4 76.6225 26.52C77.1425 26.64 77.6092 26.8133 78.0225 27.04C78.4358 27.2667 78.7625 27.5933 79.0025 28.02C79.2558 28.4467 79.3825 29 79.3825 29.68C79.3825 30.9067 78.9292 31.8 78.0225 32.36C77.1292 32.92 75.8892 33.2 74.3025 33.2ZM84.6902 33C83.8902 33 83.2702 32.8867 82.8302 32.66C82.4035 32.42 82.1035 32.0867 81.9302 31.66C81.7702 31.2333 81.6902 30.7333 81.6902 30.16V24.92H79.8302V22.2H81.6902V19.34L85.0702 19.04V22.2H87.1502V24.92H85.0702V29.54C85.0702 29.8333 85.1435 30.0333 85.2902 30.14C85.4368 30.2333 85.6368 30.28 85.8902 30.28H87.1502V33H84.6902ZM92.7191 33V18.42H96.2991V33H92.7191ZM103.122 33.2C101.509 33.2 100.262 32.8667 99.382 32.2C98.502 31.5333 98.0687 30.66 98.082 29.58H101.422C101.435 30.0733 101.609 30.4267 101.942 30.64C102.289 30.84 102.709 30.94 103.202 30.94C103.735 30.94 104.129 30.8533 104.382 30.68C104.649 30.5067 104.782 30.28 104.782 30C104.782 29.7067 104.709 29.4933 104.562 29.36C104.415 29.2133 104.189 29.1067 103.882 29.04C103.589 28.9733 103.209 28.9133 102.742 28.86C102.155 28.7667 101.595 28.66 101.062 28.54C100.542 28.4067 100.082 28.22 99.682 27.98C99.282 27.74 98.962 27.42 98.722 27.02C98.482 26.62 98.362 26.1133 98.362 25.5C98.362 24.7133 98.5687 24.06 98.982 23.54C99.3954 23.02 99.962 22.6333 100.682 22.38C101.415 22.1267 102.269 22 103.242 22C104.189 22 105.009 22.14 105.702 22.42C106.409 22.6867 106.955 23.0733 107.342 23.58C107.729 24.0867 107.935 24.7 107.962 25.42H104.662C104.649 25.1667 104.582 24.96 104.462 24.8C104.342 24.6267 104.169 24.4933 103.942 24.4C103.729 24.3067 103.462 24.26 103.142 24.26C102.675 24.26 102.322 24.3467 102.082 24.52C101.855 24.68 101.742 24.8933 101.742 25.16C101.742 25.3867 101.815 25.5733 101.962 25.72C102.109 25.8533 102.335 25.96 102.642 26.04C102.949 26.1067 103.342 26.1733 103.822 26.24C104.382 26.3067 104.922 26.4 105.442 26.52C105.962 26.64 106.429 26.8133 106.842 27.04C107.255 27.2667 107.582 27.5933 107.822 28.02C108.075 28.4467 108.202 29 108.202 29.68C108.202 30.9067 107.749 31.8 106.842 32.36C105.949 32.92 104.709 33.2 103.122 33.2ZM114.17 33.2C112.556 33.2 111.31 32.8667 110.43 32.2C109.55 31.5333 109.116 30.66 109.13 29.58H112.47C112.483 30.0733 112.656 30.4267 112.99 30.64C113.336 30.84 113.756 30.94 114.25 30.94C114.783 30.94 115.176 30.8533 115.43 30.68C115.696 30.5067 115.83 30.28 115.83 30C115.83 29.7067 115.756 29.4933 115.61 29.36C115.463 29.2133 115.236 29.1067 114.93 29.04C114.636 28.9733 114.256 28.9133 113.79 28.86C113.203 28.7667 112.643 28.66 112.11 28.54C111.59 28.4067 111.13 28.22 110.73 27.98C110.33 27.74 110.01 27.42 109.77 27.02C109.53 26.62 109.41 26.1133 109.41 25.5C109.41 24.7133 109.616 24.06 110.03 23.54C110.443 23.02 111.01 22.6333 111.73 22.38C112.463 22.1267 113.316 22 114.29 22C115.236 22 116.056 22.14 116.75 22.42C117.456 22.6867 118.003 23.0733 118.39 23.58C118.776 24.0867 118.983 24.7 119.01 25.42H115.71C115.696 25.1667 115.63 24.96 115.51 24.8C115.39 24.6267 115.216 24.4933 114.99 24.4C114.776 24.3067 114.51 24.26 114.19 24.26C113.723 24.26 113.37 24.3467 113.13 24.52C112.903 24.68 112.79 24.8933 112.79 25.16C112.79 25.3867 112.863 25.5733 113.01 25.72C113.156 25.8533 113.383 25.96 113.69 26.04C113.996 26.1067 114.39 26.1733 114.87 26.24C115.43 26.3067 115.97 26.4 116.49 26.52C117.01 26.64 117.476 26.8133 117.89 27.04C118.303 27.2667 118.63 27.5933 118.87 28.02C119.123 28.4467 119.25 29 119.25 29.68C119.25 30.9067 118.796 31.8 117.89 32.36C116.996 32.92 115.756 33.2 114.17 33.2ZM124.477 33.2C123.637 33.2 122.931 33.04 122.357 32.72C121.784 32.3867 121.351 31.9067 121.057 31.28C120.777 30.64 120.637 29.8733 120.637 28.98V22.2H124.017V28.06C124.017 28.58 124.077 29.02 124.197 29.38C124.331 29.7267 124.531 29.9933 124.797 30.18C125.064 30.3667 125.411 30.46 125.837 30.46C126.277 30.46 126.651 30.3533 126.957 30.14C127.264 29.9267 127.497 29.6533 127.657 29.32C127.817 28.9867 127.897 28.6267 127.897 28.24V22.2H131.277V33H128.017L127.897 31.12H127.757C127.491 31.8 127.064 32.32 126.477 32.68C125.891 33.0267 125.224 33.2 124.477 33.2ZM137.895 33.2C136.735 33.2 135.749 32.9733 134.935 32.52C134.122 32.0533 133.495 31.4067 133.055 30.58C132.629 29.7533 132.415 28.7867 132.415 27.68C132.415 26.52 132.635 25.5133 133.075 24.66C133.515 23.8067 134.135 23.1533 134.935 22.7C135.749 22.2333 136.689 22 137.755 22C139.049 22 140.102 22.28 140.915 22.84C141.729 23.3867 142.315 24.14 142.675 25.1C143.035 26.06 143.149 27.1533 143.015 28.38H135.735C135.735 28.86 135.822 29.2733 135.995 29.62C136.182 29.9533 136.435 30.2133 136.755 30.4C137.075 30.5733 137.455 30.66 137.895 30.66C138.375 30.66 138.782 30.56 139.115 30.36C139.462 30.1467 139.682 29.8733 139.775 29.54H142.955C142.875 30.26 142.609 30.9 142.155 31.46C141.702 32.0067 141.109 32.4333 140.375 32.74C139.642 33.0467 138.815 33.2 137.895 33.2ZM135.735 26.62L135.455 26.3H140.015L139.695 26.6C139.722 26.1467 139.655 25.7667 139.495 25.46C139.335 25.1533 139.102 24.92 138.795 24.76C138.502 24.6 138.155 24.52 137.755 24.52C137.342 24.52 136.982 24.6067 136.675 24.78C136.369 24.9533 136.135 25.2 135.975 25.52C135.815 25.8267 135.735 26.1933 135.735 26.62Z" fill="white"/>
</svg>
