<svg xmlns="http://www.w3.org/2000/svg" width="64" height="64" viewBox="0 0 64 64" fill="none">
  <g opacity="0.1">
    <path fill-rule="evenodd" clip-rule="evenodd" d="M32 0C14.32 0 0 14.32 0 32C0 46.16 9.16 58.12 21.88 62.36C23.48 62.64 24.08 61.68 24.08 60.84C24.08 60.08 24.04 57.56 24.04 54.88C16 56.36 13.92 52.92 13.28 51.12C12.92 50.2 11.36 47.36 10 46.6C8.88 46 7.28 44.52 9.96 44.48C12.48 44.44 14.28 46.8 14.88 47.76C17.76 52.6 22.36 51.24 24.2 50.4C24.48 48.32 25.32 46.92 26.24 46.12C19.12 45.32 11.68 42.56 11.68 30.32C11.68 26.84 12.92 23.96 14.96 21.72C14.64 20.92 13.52 17.64 15.28 13.24C15.28 13.24 17.96 12.4 24.08 16.52C26.64 15.8 29.36 15.44 32.08 15.44C34.8 15.44 37.52 15.8 40.08 16.52C46.2 12.36 48.88 13.24 48.88 13.24C50.64 17.64 49.52 20.92 49.2 21.72C51.24 23.96 52.48 26.8 52.48 30.32C52.48 42.6 45 45.32 37.88 46.12C39.04 47.12 40.04 49.04 40.04 52.04C40.04 56.32 40 59.76 40 60.84C40 61.68 40.6 62.68 42.2 62.36C54.84 58.12 64 46.12 64 32C64 14.32 49.68 0 32 0Z" fill="#F2F2F2"/>
  </g>
</svg>
