<svg width="485" height="474" viewBox="0 0 485 474" fill="none" xmlns="http://www.w3.org/2000/svg">
<g filter="url(#filter0_iii_221_343)">
<path d="M354 295.957C330.971 295.957 325.011 339.418 282.475 318.04V344.587C336.661 360.327 346.956 315.691 355.897 312.637C364.838 309.583 373.778 316.631 377.029 314.516C380.281 312.402 374.862 295.957 354 295.957Z" fill="#8E47FE"/>
</g>
<g filter="url(#filter1_ii_221_343)">
<path d="M282.91 398.846C291.853 398.846 299.102 405.174 299.102 412.98C310.168 412.98 309.088 424.286 299.102 424.286H259.3L240.678 418.373L226.105 424.286H195.397H181.571C171.586 424.286 170.506 412.98 181.571 412.98C181.571 405.174 188.821 398.846 197.764 398.846L197.764 312.122C197.764 301.385 206.244 292.066 218.225 289.636L230.014 287.245H250.66L262.449 289.636C274.43 292.066 282.91 301.385 282.91 312.122L282.91 398.846Z" fill="#8E47FE"/>
<path d="M282.91 398.846C291.853 398.846 299.102 405.174 299.102 412.98C310.168 412.98 309.088 424.286 299.102 424.286H259.3L240.678 418.373L226.105 424.286H195.397H181.571C171.586 424.286 170.506 412.98 181.571 412.98C181.571 405.174 188.821 398.846 197.764 398.846L197.764 312.122C197.764 301.385 206.244 292.066 218.225 289.636L230.014 287.245H250.66L262.449 289.636C274.43 292.066 282.91 301.385 282.91 312.122L282.91 398.846Z" fill="url(#paint0_radial_221_343)"/>
</g>
<g opacity="0.7" filter="url(#filter2_f_221_343)">
<path d="M220.805 397.133C219.452 391.521 223.079 320.619 214.957 321.209C210.558 323.572 203.885 405.461 203.885 406.879C203.885 408.651 196.441 409.242 193.733 409.537C191.026 409.833 187.981 413.967 188.657 418.693C189.334 423.418 198.133 421.942 203.885 422.237C209.638 422.532 220.805 420.465 221.821 418.693C222.836 416.921 222.159 402.744 220.805 397.133Z" fill="black"/>
</g>
<g opacity="0.7" filter="url(#filter3_f_221_343)">
<path d="M267.504 396.841C266.151 391.229 269.778 320.327 261.656 320.918C257.257 323.281 250.584 405.17 250.584 406.587C250.584 408.36 243.14 408.95 240.432 409.246C237.725 409.541 234.68 413.676 235.356 418.401C236.033 423.127 244.832 421.65 250.584 421.945C256.337 422.241 267.504 420.173 268.52 418.401C269.535 416.629 268.858 402.453 267.504 396.841Z" fill="black"/>
</g>
<mask id="mask0_221_343" style="mask-type:alpha" maskUnits="userSpaceOnUse" x="146" y="306" width="187" height="168">
<path d="M241.352 306.443C227.14 303.194 185.178 335.091 175.703 330.07C171.417 321.998 142.811 476.445 146.601 471.247C151.339 464.749 308.694 469.475 326.968 473.61C345.241 477.745 316.816 354.879 304.633 337.159C293.943 321.608 255.565 309.691 241.352 306.443Z" fill="black"/>
</mask>
<g mask="url(#mask0_221_343)">
<g filter="url(#filter4_diii_221_343)">
<path d="M240.514 289.607V413.932C240.514 420.221 235.415 425.32 229.126 425.32H192.234C182.255 425.32 181.176 414.034 192.234 414.034C192.234 406.242 199.48 399.926 208.417 399.926H210.98V318.632C210.98 308.4 217.163 299.182 226.631 295.3L240.514 289.607Z" fill="#8E47FE"/>
<path d="M240.514 289.607V413.932C240.514 420.221 235.415 425.32 229.126 425.32H192.234C182.255 425.32 181.176 414.034 192.234 414.034C192.234 406.242 199.48 399.926 208.417 399.926H210.98V318.632C210.98 308.4 217.163 299.182 226.631 295.3L240.514 289.607Z" fill="url(#paint1_radial_221_343)"/>
</g>
<g filter="url(#filter5_diii_221_343)">
<path d="M240.676 289.607V413.932C240.676 420.221 245.774 425.32 252.064 425.32H288.956C298.935 425.32 300.014 414.034 288.956 414.034C288.956 406.242 281.71 399.926 272.773 399.926H270.21V318.632C270.21 308.4 264.027 299.182 254.559 295.3L240.676 289.607Z" fill="#8E47FE"/>
<path d="M240.676 289.607V413.932C240.676 420.221 245.774 425.32 252.064 425.32H288.956C298.935 425.32 300.014 414.034 288.956 414.034C288.956 406.242 281.71 399.926 272.773 399.926H270.21V318.632C270.21 308.4 264.027 299.182 254.559 295.3L240.676 289.607Z" fill="url(#paint2_radial_221_343)"/>
</g>
</g>
<mask id="mask1_221_343" style="mask-type:alpha" maskUnits="userSpaceOnUse" x="173" y="287" width="135" height="138">
<path d="M282.91 398.846C291.853 398.846 299.102 405.174 299.102 412.98C310.168 412.98 309.088 424.286 299.102 424.286H259.3L240.678 418.373L226.105 424.286H195.397H181.571C171.586 424.286 170.506 412.98 181.571 412.98C181.571 405.174 188.821 398.846 197.764 398.846L197.764 312.122C197.764 301.385 206.244 292.066 218.225 289.636L230.014 287.245H250.66L262.449 289.636C274.43 292.066 282.91 301.385 282.91 312.122L282.91 398.846Z" fill="#8E47FE"/>
<path d="M282.91 398.846C291.853 398.846 299.102 405.174 299.102 412.98C310.168 412.98 309.088 424.286 299.102 424.286H259.3L240.678 418.373L226.105 424.286H195.397H181.571C171.586 424.286 170.506 412.98 181.571 412.98C181.571 405.174 188.821 398.846 197.764 398.846L197.764 312.122C197.764 301.385 206.244 292.066 218.225 289.636L230.014 287.245H250.66L262.449 289.636C274.43 292.066 282.91 301.385 282.91 312.122L282.91 398.846Z" fill="url(#paint3_radial_221_343)"/>
</mask>
<g mask="url(#mask1_221_343)">
<g filter="url(#filter6_f_221_343)">
<path d="M210.896 299.945C209.881 302.898 196.345 298.763 192.622 293.742L156.075 239.693L297.865 255.938C295.947 264.601 287.374 287.245 287.374 296.696C287.374 299.649 274.854 302.307 270.454 302.307C270.454 306.442 256.58 312.94 239.998 304.079C238.645 308.214 220.71 312.94 210.896 299.945Z" fill="#100CB2"/>
</g>
<g opacity="0.48" filter="url(#filter7_f_221_343)">
<path d="M231.2 420.742C226.801 422.514 199.052 422.514 193.638 420.742C195.555 420.742 199.864 420.447 201.759 419.265C204.128 417.788 208.527 412.177 212.926 411.881C217.326 411.586 221.725 411.291 225.786 407.747C229.034 404.911 236.389 402.824 236.276 400.068C236.502 404.202 237.02 412.827 237.291 414.244C237.63 416.016 235.599 418.97 231.2 420.742Z" fill="black"/>
<path d="M246.09 419.265C243.653 418.084 245.074 407.747 246.09 402.726C247.105 402.726 249.541 403.316 251.166 405.679C253.196 408.633 255.903 410.109 260.979 410.109C266.055 410.109 269.439 410.109 272.485 411.881C275.53 413.654 274.515 414.244 276.546 416.902C278.564 419.546 282.256 420.729 283.629 420.742C283.669 420.742 283.689 420.742 283.689 420.742L283.652 420.742C283.644 420.742 283.637 420.742 283.629 420.742C282.025 420.739 249.006 420.679 246.09 419.265Z" fill="black"/>
</g>
</g>
<path fill-rule="evenodd" clip-rule="evenodd" d="M415.091 116.475C417.842 103.413 419.588 86.9945 418.817 66.8928C417.268 26.4998 403.095 0.17152 396.413 0C384.377 0.423593 349.001 5.08189 313.134 25.235C295.067 20.2952 274.266 17.331 249.299 16.4711V16.209C246.636 16.209 244.017 16.2302 241.441 16.2724C238.859 16.23 236.233 16.2087 233.563 16.2087V16.4714C207.736 17.3609 186.368 20.5021 167.871 25.7527C132.002 5.59693 96.6234 0.938183 84.5864 0.514569C77.9047 0.686089 63.7321 27.0144 62.1829 67.4074C61.3089 90.1981 63.6703 108.254 67.0626 122.052C66.1269 131.104 66.1269 140.45 66.1269 150.252C66.1269 165.194 68.3095 196.128 75.5599 229.494C82.0452 259.339 101.613 269.63 129.8 279.921C158.361 290.349 208.088 296.446 241.447 296.091C274.806 296.442 324.51 290.345 353.062 279.921C381.249 269.63 400.817 259.338 407.302 229.494C414.553 196.128 416.735 165.194 416.735 150.252C416.735 138.424 416.735 127.261 415.091 116.475Z" fill="#8E47FE"/>
<path fill-rule="evenodd" clip-rule="evenodd" d="M415.091 116.475C417.842 103.413 419.588 86.9945 418.817 66.8928C417.268 26.4998 403.095 0.17152 396.413 0C384.377 0.423593 349.001 5.08189 313.134 25.235C295.067 20.2952 274.266 17.331 249.299 16.4711V16.209C246.636 16.209 244.017 16.2302 241.441 16.2724C238.859 16.23 236.233 16.2087 233.563 16.2087V16.4714C207.736 17.3609 186.368 20.5021 167.871 25.7527C132.002 5.59693 96.6234 0.938183 84.5864 0.514569C77.9047 0.686089 63.7321 27.0144 62.1829 67.4074C61.3089 90.1981 63.6703 108.254 67.0626 122.052C66.1269 131.104 66.1269 140.45 66.1269 150.252C66.1269 165.194 68.3095 196.128 75.5599 229.494C82.0452 259.339 101.613 269.63 129.8 279.921C158.361 290.349 208.088 296.446 241.447 296.091C274.806 296.442 324.51 290.345 353.062 279.921C381.249 269.63 400.817 259.338 407.302 229.494C414.553 196.128 416.735 165.194 416.735 150.252C416.735 138.424 416.735 127.261 415.091 116.475Z" fill="url(#paint4_radial_221_343)"/>
<path fill-rule="evenodd" clip-rule="evenodd" d="M415.091 116.475C417.842 103.413 419.588 86.9945 418.817 66.8928C417.268 26.4998 403.095 0.17152 396.413 0C384.377 0.423593 349.001 5.08189 313.134 25.235C295.067 20.2952 274.266 17.331 249.299 16.4711V16.209C246.636 16.209 244.017 16.2302 241.441 16.2724C238.859 16.23 236.233 16.2087 233.563 16.2087V16.4714C207.736 17.3609 186.368 20.5021 167.871 25.7527C132.002 5.59693 96.6234 0.938183 84.5864 0.514569C77.9047 0.686089 63.7321 27.0144 62.1829 67.4074C61.3089 90.1981 63.6703 108.254 67.0626 122.052C66.1269 131.104 66.1269 140.45 66.1269 150.252C66.1269 165.194 68.3095 196.128 75.5599 229.494C82.0452 259.339 101.613 269.63 129.8 279.921C158.361 290.349 208.088 296.446 241.447 296.091C274.806 296.442 324.51 290.345 353.062 279.921C381.249 269.63 400.817 259.338 407.302 229.494C414.553 196.128 416.735 165.194 416.735 150.252C416.735 138.424 416.735 127.261 415.091 116.475Z" fill="url(#paint5_radial_221_343)" fill-opacity="0.42"/>
<mask id="mask2_221_343" style="mask-type:alpha" maskUnits="userSpaceOnUse" x="62" y="0" width="357" height="154">
<path fill-rule="evenodd" clip-rule="evenodd" d="M401.425 153.082C407.517 143.219 420.704 116.085 418.817 66.8928C417.268 26.4998 403.095 0.17152 396.413 0C384.229 0.4288 348.128 5.19706 311.811 25.9853C275.494 46.7735 356.814 119.807 401.425 153.082ZM79.5751 153.596C73.4829 143.734 60.2963 116.599 62.1829 67.4074C63.7321 27.0144 77.9047 0.686089 84.5864 0.514569C96.7707 0.943369 132.872 5.71162 169.189 26.4999C205.506 47.2881 124.185 120.321 79.5751 153.596Z" fill="#8E47FE"/>
<path fill-rule="evenodd" clip-rule="evenodd" d="M401.425 153.082C407.517 143.219 420.704 116.085 418.817 66.8928C417.268 26.4998 403.095 0.17152 396.413 0C384.229 0.4288 348.128 5.19706 311.811 25.9853C275.494 46.7735 356.814 119.807 401.425 153.082ZM79.5751 153.596C73.4829 143.734 60.2963 116.599 62.1829 67.4074C63.7321 27.0144 77.9047 0.686089 84.5864 0.514569C96.7707 0.943369 132.872 5.71162 169.189 26.4999C205.506 47.2881 124.185 120.321 79.5751 153.596Z" fill="url(#paint6_radial_221_343)"/>
<path fill-rule="evenodd" clip-rule="evenodd" d="M401.425 153.082C407.517 143.219 420.704 116.085 418.817 66.8928C417.268 26.4998 403.095 0.17152 396.413 0C384.229 0.4288 348.128 5.19706 311.811 25.9853C275.494 46.7735 356.814 119.807 401.425 153.082ZM79.5751 153.596C73.4829 143.734 60.2963 116.599 62.1829 67.4074C63.7321 27.0144 77.9047 0.686089 84.5864 0.514569C96.7707 0.943369 132.872 5.71162 169.189 26.4999C205.506 47.2881 124.185 120.321 79.5751 153.596Z" fill="url(#paint7_radial_221_343)" fill-opacity="0.42"/>
</mask>
<g mask="url(#mask2_221_343)">
<g filter="url(#filter8_f_221_343)">
<path fill-rule="evenodd" clip-rule="evenodd" d="M418.759 86.8085C419.048 80.6188 419.089 73.9851 418.817 66.8928C417.268 26.4998 403.095 0.17152 396.413 0C384.229 0.4288 348.128 5.19706 311.811 25.9853C311.364 26.241 310.935 26.5046 310.524 26.7759C341.161 12.2147 366.063 8.79762 384.516 6.26544C386.658 5.9714 388.714 5.6893 390.682 5.40307C398.823 4.21876 414.265 25.4709 418.097 72.8104C418.493 77.7041 418.705 82.3678 418.759 86.8085ZM67.9905 125.632C65.832 114.07 64.3582 99.0239 64.3582 79.2426C64.3582 36.0195 80.6695 7.37567 87.3512 7.20415C97.7494 6.93724 123.687 7.64692 160.821 21.9809C127.458 5.00361 95.8333 0.910379 84.5864 0.514569C77.9047 0.686089 63.7321 27.0144 62.1829 67.4074C61.2311 92.2249 64.1158 111.428 67.9905 125.632Z" fill="#0DFF50"/>
</g>
</g>
<g filter="url(#filter9_f_221_343)">
<path d="M378.596 240.814C402.179 188.329 398.373 161.572 378.596 135.844C347.795 95.7736 321.998 91.5918 240.638 111.145C151.024 91.5918 128.711 96.1381 109.755 135.844C92.0679 172.892 77.706 226.003 109.755 252.134C189.936 317.511 355.014 293.299 378.596 240.814Z" fill="url(#paint8_radial_221_343)"/>
</g>
<mask id="mask3_221_343" style="mask-type:alpha" maskUnits="userSpaceOnUse" x="66" y="15" width="351" height="281">
<path fill-rule="evenodd" clip-rule="evenodd" d="M407.302 229.237C414.553 195.87 416.735 164.936 416.735 149.994C416.735 117.062 416.735 89.2762 381.249 60.4609C348.418 33.8011 311.994 18.373 249.299 16.2138V15.9515C246.633 15.9515 244.012 15.9727 241.433 16.015C238.854 15.9726 236.231 15.9514 233.563 15.9514V16.2139C170.869 18.373 134.444 33.8012 101.613 60.4609C66.1268 89.2763 66.1268 117.063 66.1268 149.994C66.1268 164.937 68.3094 195.87 75.5599 229.237C82.0451 259.081 101.613 269.372 129.8 279.664C158.358 290.09 208.075 296.187 241.434 295.833C274.793 296.186 324.506 290.09 353.062 279.663C381.249 269.372 400.817 259.081 407.302 229.237Z" fill="#8E47FE"/>
<path fill-rule="evenodd" clip-rule="evenodd" d="M407.302 229.237C414.553 195.87 416.735 164.936 416.735 149.994C416.735 117.062 416.735 89.2762 381.249 60.4609C348.418 33.8011 311.994 18.373 249.299 16.2138V15.9515C246.633 15.9515 244.012 15.9727 241.433 16.015C238.854 15.9726 236.231 15.9514 233.563 15.9514V16.2139C170.869 18.373 134.444 33.8012 101.613 60.4609C66.1268 89.2763 66.1268 117.063 66.1268 149.994C66.1268 164.937 68.3094 195.87 75.5599 229.237C82.0451 259.081 101.613 269.372 129.8 279.664C158.358 290.09 208.075 296.187 241.434 295.833C274.793 296.186 324.506 290.09 353.062 279.663C381.249 269.372 400.817 259.081 407.302 229.237Z" fill="url(#paint9_radial_221_343)"/>
<path fill-rule="evenodd" clip-rule="evenodd" d="M407.302 229.237C414.553 195.87 416.735 164.936 416.735 149.994C416.735 117.062 416.735 89.2762 381.249 60.4609C348.418 33.8011 311.994 18.373 249.299 16.2138V15.9515C246.633 15.9515 244.012 15.9727 241.433 16.015C238.854 15.9726 236.231 15.9514 233.563 15.9514V16.2139C170.869 18.373 134.444 33.8012 101.613 60.4609C66.1268 89.2763 66.1268 117.063 66.1268 149.994C66.1268 164.937 68.3094 195.87 75.5599 229.237C82.0451 259.081 101.613 269.372 129.8 279.664C158.358 290.09 208.075 296.187 241.434 295.833C274.793 296.186 324.506 290.09 353.062 279.663C381.249 269.372 400.817 259.081 407.302 229.237Z" fill="url(#paint10_radial_221_343)" fill-opacity="0.42"/>
</mask>
<g mask="url(#mask3_221_343)">
<g filter="url(#filter10_f_221_343)">
<path fill-rule="evenodd" clip-rule="evenodd" d="M67.4332 178.63C68.7769 193.825 71.2893 212.635 75.56 232.288C82.0453 262.133 101.613 272.424 129.8 282.715C158.359 293.142 208.078 299.239 241.437 298.885C274.795 299.237 324.507 293.141 353.063 282.715C381.249 272.424 400.817 262.133 407.302 232.288C413.311 204.636 415.839 178.653 416.529 162.061C454.935 189.733 478.288 227.011 477.794 267.825C476.778 351.813 375.17 418.97 250.845 417.824C126.521 416.679 26.5591 347.665 27.575 263.677C27.958 232.018 42.6344 202.75 67.4332 178.63Z" fill="#0DFF50"/>
</g>
<g opacity="0.15" filter="url(#filter11_f_221_343)">
<ellipse cx="251.016" cy="25.043" rx="63.4384" ry="27.1011" fill="white"/>
</g>
<g filter="url(#filter12_f_221_343)">
<path d="M72.0226 61.747L13.0662 138.931V89.7905L72.0226 -52.228L432.246 -27.5291L454.945 122.465L432.246 81.3003C408.074 51.6273 347.231 15.4366 242.996 15.4366C138.761 15.4366 90.8886 40.1355 72.0226 61.747Z" fill="#0DFF50"/>
</g>
</g>
<path fill-rule="evenodd" clip-rule="evenodd" d="M371.567 230.237C370.248 227.606 368.741 224.601 368.741 218.137C368.741 214.395 371.337 208.181 374.595 200.384C384.062 177.728 399.113 141.706 372.27 114.143C353.723 95.0999 328.898 95.6153 305.108 101.837C282.068 107.861 269.176 110.864 241.61 111.047C228.851 110.883 215.711 108.492 201.854 105.972C193.756 104.498 185.413 102.981 176.758 101.837C176.421 101.792 176.084 101.747 175.746 101.703C152.065 98.5682 127.882 95.3673 109.596 114.143C82.752 141.706 97.8035 177.728 107.27 200.384C110.528 208.181 113.125 214.395 113.125 218.137C113.125 224.601 111.618 227.606 110.298 230.237C108.634 233.554 107.268 236.277 109.596 244.594C113.77 259.506 150.735 271.033 183.161 277.259C213.462 283.077 233.146 282.964 240.075 282.924C240.387 282.922 240.673 282.921 240.933 282.92C241.193 282.921 241.478 282.922 241.79 282.924C248.719 282.964 268.403 283.077 298.705 277.259C331.131 271.033 368.096 259.506 372.27 244.594C374.597 236.277 373.231 233.554 371.567 230.237Z" fill="url(#paint11_radial_221_343)"/>
<g opacity="0.35" filter="url(#filter13_f_221_343)">
<path fill-rule="evenodd" clip-rule="evenodd" d="M363.327 224.847C362.101 222.534 360.7 219.892 360.7 214.209C360.7 210.92 363.113 205.457 366.141 198.602C374.938 178.684 388.926 147.017 363.98 122.786C346.744 106.044 323.673 106.497 301.565 111.966L301.238 112.047C279.499 117.425 268.945 120.036 242.091 120.071V119.904C230.023 119.904 218.207 117.796 205.546 115.538C198.089 114.208 190.338 112.825 182.07 111.79C181.756 111.751 181.443 111.712 181.13 111.672C159.122 108.914 136.649 106.096 119.655 122.621C94.7086 146.879 108.696 178.582 117.494 198.522C120.522 205.384 122.935 210.853 122.935 214.146C122.935 219.836 121.534 222.48 120.308 224.795C118.761 227.715 117.492 230.112 119.655 237.431C123.534 250.555 157.886 260.7 188.02 266.18C216.18 271.3 234.472 271.201 240.912 271.166C241.247 271.164 241.55 271.162 241.82 271.162C242.089 271.162 242.39 271.164 242.723 271.166C249.162 271.201 267.455 271.3 295.615 266.185C325.749 260.712 360.101 250.578 363.98 237.468C366.143 230.157 364.873 227.763 363.327 224.847Z" fill="url(#paint12_linear_221_343)"/>
</g>
<g filter="url(#filter14_f_221_343)">
<path fill-rule="evenodd" clip-rule="evenodd" d="M122.298 249.217C131.698 260.121 161.493 268.56 188.02 273.383C216.179 278.504 234.472 278.405 240.912 278.37H240.912C241.262 278.368 241.577 278.366 241.857 278.365C242.115 278.366 242.402 278.368 242.717 278.369L242.723 278.369C249.162 278.404 267.455 278.504 295.615 273.389C322.038 268.589 351.705 260.206 361.226 249.376C348.573 258.466 321.718 265.534 297.498 269.787C268.371 274.902 249.449 274.803 242.789 274.768C242.445 274.766 242.134 274.764 241.855 274.763C241.578 274.764 241.267 274.766 240.924 274.768L240.916 274.768H240.916C234.255 274.803 215.334 274.902 186.207 269.781C161.871 265.503 134.875 258.381 122.298 249.217Z" fill="#0DFF50"/>
</g>
<g filter="url(#filter15_f_221_343)">
<path d="M283.557 222.101C282.527 214.446 314.474 205.309 341.269 205.309C377.596 205.309 356.985 226.546 341.269 232.226C325.553 237.905 284.588 229.756 283.557 222.101Z" fill="#9847FE"/>
<path d="M204.204 222.101C205.234 214.446 173.287 205.309 146.493 205.309C110.165 205.309 130.777 226.546 146.493 232.226C162.209 237.905 203.173 229.756 204.204 222.101Z" fill="#9847FE"/>
</g>
<g filter="url(#filter16_d_221_343)">
<path d="M235.957 218.072C235.957 214.556 239.108 211.705 242.995 211.705H246.395C250.282 211.705 253.433 214.556 253.433 218.072C253.433 219.251 252.505 220.262 251.225 220.479L249.828 220.716C246.436 221.291 242.955 221.291 239.562 220.716L238.165 220.479C236.885 220.262 235.957 219.251 235.957 218.072Z" fill="#140FFF"/>
<path d="M235.957 218.072C235.957 214.556 239.108 211.705 242.995 211.705H246.395C250.282 211.705 253.433 214.556 253.433 218.072C253.433 219.251 252.505 220.262 251.225 220.479L249.828 220.716C246.436 221.291 242.955 221.291 239.562 220.716L238.165 220.479C236.885 220.262 235.957 219.251 235.957 218.072Z" fill="url(#paint13_linear_221_343)"/>
</g>
<path d="M250.521 219.694C246.36 221.147 240.118 220.42 237.622 218.968C237.206 216.789 241.782 216.062 245.943 216.062C250.104 216.062 252.601 218.968 250.521 219.694Z" fill="url(#paint14_linear_221_343)" fill-opacity="0.72"/>
<g filter="url(#filter17_dd_221_343)">
<path d="M261.862 234.125C260.123 240.632 254.492 245.445 245.354 245.445C236.216 245.445 229.996 240.632 228.257 234.125" stroke="#0F0AF2" stroke-width="5.98017"/>
</g>
<g opacity="0.8" filter="url(#filter18_d_221_343)">
<ellipse cx="288.541" cy="195.189" rx="13.7083" ry="22.2972" fill="url(#paint15_linear_221_343)" shape-rendering="crispEdges"/>
</g>
<ellipse cx="4.97731" cy="4.35929" rx="4.97731" ry="4.35929" transform="matrix(0.995146 -0.0984137 0.128745 0.991678 283.101 174.661)" fill="url(#paint16_linear_221_343)"/>
<g opacity="0.8" filter="url(#filter19_d_221_343)">
<ellipse cx="194.211" cy="195.19" rx="13.7083" ry="22.2972" fill="url(#paint17_linear_221_343)" shape-rendering="crispEdges"/>
</g>
<ellipse cx="4.97731" cy="4.35929" rx="4.97731" ry="4.35929" transform="matrix(-0.995146 -0.0984137 -0.128745 0.991678 199.945 175.69)" fill="url(#paint18_linear_221_343)"/>
<defs>
<filter id="filter0_iii_221_343" x="280.034" y="288.636" width="99.496" height="61.7428" filterUnits="userSpaceOnUse" color-interpolation-filters="sRGB">
<feFlood flood-opacity="0" result="BackgroundImageFix"/>
<feBlend mode="normal" in="SourceGraphic" in2="BackgroundImageFix" result="shape"/>
<feColorMatrix in="SourceAlpha" type="matrix" values="0 0 0 0 0 0 0 0 0 0 0 0 0 0 0 0 0 0 127 0" result="hardAlpha"/>
<feOffset dx="-2.44038" dy="2.44038"/>
<feGaussianBlur stdDeviation="6.10095"/>
<feComposite in2="hardAlpha" operator="arithmetic" k2="-1" k3="1"/>
<feColorMatrix type="matrix" values="0 0 0 0 1 0 0 0 0 1 0 0 0 0 1 0 0 0 0.42 0"/>
<feBlend mode="normal" in2="shape" result="effect1_innerShadow_221_343"/>
<feColorMatrix in="SourceAlpha" type="matrix" values="0 0 0 0 0 0 0 0 0 0 0 0 0 0 0 0 0 0 127 0" result="hardAlpha"/>
<feOffset dx="1.62692" dy="-7.32114"/>
<feGaussianBlur stdDeviation="10.575"/>
<feComposite in2="hardAlpha" operator="arithmetic" k2="-1" k3="1"/>
<feColorMatrix type="matrix" values="0 0 0 0 0.0784314 0 0 0 0 0.0588235 0 0 0 0 1 0 0 0 1 0"/>
<feBlend mode="normal" in2="effect1_innerShadow_221_343" result="effect2_innerShadow_221_343"/>
<feColorMatrix in="SourceAlpha" type="matrix" values="0 0 0 0 0 0 0 0 0 0 0 0 0 0 0 0 0 0 127 0" result="hardAlpha"/>
<feOffset dy="-5.69422"/>
<feGaussianBlur stdDeviation="2.03365"/>
<feComposite in2="hardAlpha" operator="arithmetic" k2="-1" k3="1"/>
<feColorMatrix type="matrix" values="0 0 0 0 0.0509804 0 0 0 0 1 0 0 0 0 0.313726 0 0 0 0.6 0"/>
<feBlend mode="normal" in2="effect2_innerShadow_221_343" result="effect3_innerShadow_221_343"/>
</filter>
<filter id="filter1_ii_221_343" x="173.672" y="283.177" width="133.329" height="143.549" filterUnits="userSpaceOnUse" color-interpolation-filters="sRGB">
<feFlood flood-opacity="0" result="BackgroundImageFix"/>
<feBlend mode="normal" in="SourceGraphic" in2="BackgroundImageFix" result="shape"/>
<feColorMatrix in="SourceAlpha" type="matrix" values="0 0 0 0 0 0 0 0 0 0 0 0 0 0 0 0 0 0 127 0" result="hardAlpha"/>
<feOffset dy="2.44038"/>
<feGaussianBlur stdDeviation="6.10095"/>
<feComposite in2="hardAlpha" operator="arithmetic" k2="-1" k3="1"/>
<feColorMatrix type="matrix" values="0 0 0 0 1 0 0 0 0 1 0 0 0 0 1 0 0 0 0.72 0"/>
<feBlend mode="normal" in2="shape" result="effect1_innerShadow_221_343"/>
<feColorMatrix in="SourceAlpha" type="matrix" values="0 0 0 0 0 0 0 0 0 0 0 0 0 0 0 0 0 0 127 0" result="hardAlpha"/>
<feOffset dy="-4.0673"/>
<feGaussianBlur stdDeviation="3.25384"/>
<feComposite in2="hardAlpha" operator="arithmetic" k2="-1" k3="1"/>
<feColorMatrix type="matrix" values="0 0 0 0 0.0509804 0 0 0 0 1 0 0 0 0 0.313726 0 0 0 0.67 0"/>
<feBlend mode="normal" in2="effect1_innerShadow_221_343" result="effect2_innerShadow_221_343"/>
</filter>
<filter id="filter2_f_221_343" x="174.733" y="307.377" width="61.4052" height="128.717" filterUnits="userSpaceOnUse" color-interpolation-filters="sRGB">
<feFlood flood-opacity="0" result="BackgroundImageFix"/>
<feBlend mode="normal" in="SourceGraphic" in2="BackgroundImageFix" result="shape"/>
<feGaussianBlur stdDeviation="6.91441" result="effect1_foregroundBlur_221_343"/>
</filter>
<filter id="filter3_f_221_343" x="221.432" y="307.085" width="61.4052" height="128.717" filterUnits="userSpaceOnUse" color-interpolation-filters="sRGB">
<feFlood flood-opacity="0" result="BackgroundImageFix"/>
<feBlend mode="normal" in="SourceGraphic" in2="BackgroundImageFix" result="shape"/>
<feGaussianBlur stdDeviation="6.91441" result="effect1_foregroundBlur_221_343"/>
</filter>
<filter id="filter4_diii_221_343" x="175.392" y="285.54" width="69.1897" height="154.422" filterUnits="userSpaceOnUse" color-interpolation-filters="sRGB">
<feFlood flood-opacity="0" result="BackgroundImageFix"/>
<feColorMatrix in="SourceAlpha" type="matrix" values="0 0 0 0 0 0 0 0 0 0 0 0 0 0 0 0 0 0 127 0" result="hardAlpha"/>
<feOffset dx="-3.25384" dy="8.94806"/>
<feGaussianBlur stdDeviation="2.84711"/>
<feComposite in2="hardAlpha" operator="out"/>
<feColorMatrix type="matrix" values="0 0 0 0 0 0 0 0 0 0 0 0 0 0 0 0 0 0 0.25 0"/>
<feBlend mode="normal" in2="BackgroundImageFix" result="effect1_dropShadow_221_343"/>
<feBlend mode="normal" in="SourceGraphic" in2="effect1_dropShadow_221_343" result="shape"/>
<feColorMatrix in="SourceAlpha" type="matrix" values="0 0 0 0 0 0 0 0 0 0 0 0 0 0 0 0 0 0 127 0" result="hardAlpha"/>
<feOffset dx="4.0673" dy="2.44038"/>
<feGaussianBlur stdDeviation="6.10095"/>
<feComposite in2="hardAlpha" operator="arithmetic" k2="-1" k3="1"/>
<feColorMatrix type="matrix" values="0 0 0 0 1 0 0 0 0 1 0 0 0 0 1 0 0 0 0.42 0"/>
<feBlend mode="normal" in2="shape" result="effect2_innerShadow_221_343"/>
<feColorMatrix in="SourceAlpha" type="matrix" values="0 0 0 0 0 0 0 0 0 0 0 0 0 0 0 0 0 0 127 0" result="hardAlpha"/>
<feOffset dx="-4.0673" dy="3.25384"/>
<feGaussianBlur stdDeviation="3.66057"/>
<feComposite in2="hardAlpha" operator="arithmetic" k2="-1" k3="1"/>
<feColorMatrix type="matrix" values="0 0 0 0 0.0784314 0 0 0 0 0.0588235 0 0 0 0 1 0 0 0 0.53 0"/>
<feBlend mode="normal" in2="effect2_innerShadow_221_343" result="effect3_innerShadow_221_343"/>
<feColorMatrix in="SourceAlpha" type="matrix" values="0 0 0 0 0 0 0 0 0 0 0 0 0 0 0 0 0 0 127 0" result="hardAlpha"/>
<feOffset dy="-4.0673"/>
<feGaussianBlur stdDeviation="3.25384"/>
<feComposite in2="hardAlpha" operator="arithmetic" k2="-1" k3="1"/>
<feColorMatrix type="matrix" values="0 0 0 0 0.0509804 0 0 0 0 1 0 0 0 0 0.313726 0 0 0 0.67 0"/>
<feBlend mode="normal" in2="effect3_innerShadow_221_343" result="effect4_innerShadow_221_343"/>
</filter>
<filter id="filter5_diii_221_343" x="238.235" y="285.54" width="64.3089" height="152.795" filterUnits="userSpaceOnUse" color-interpolation-filters="sRGB">
<feFlood flood-opacity="0" result="BackgroundImageFix"/>
<feColorMatrix in="SourceAlpha" type="matrix" values="0 0 0 0 0 0 0 0 0 0 0 0 0 0 0 0 0 0 127 0" result="hardAlpha"/>
<feOffset dx="1.62692" dy="8.94806"/>
<feGaussianBlur stdDeviation="2.03365"/>
<feComposite in2="hardAlpha" operator="out"/>
<feColorMatrix type="matrix" values="0 0 0 0 0 0 0 0 0 0 0 0 0 0 0 0 0 0 0.25 0"/>
<feBlend mode="normal" in2="BackgroundImageFix" result="effect1_dropShadow_221_343"/>
<feBlend mode="normal" in="SourceGraphic" in2="effect1_dropShadow_221_343" result="shape"/>
<feColorMatrix in="SourceAlpha" type="matrix" values="0 0 0 0 0 0 0 0 0 0 0 0 0 0 0 0 0 0 127 0" result="hardAlpha"/>
<feOffset dx="-2.44038" dy="2.44038"/>
<feGaussianBlur stdDeviation="6.10095"/>
<feComposite in2="hardAlpha" operator="arithmetic" k2="-1" k3="1"/>
<feColorMatrix type="matrix" values="0 0 0 0 1 0 0 0 0 1 0 0 0 0 1 0 0 0 0.42 0"/>
<feBlend mode="normal" in2="shape" result="effect2_innerShadow_221_343"/>
<feColorMatrix in="SourceAlpha" type="matrix" values="0 0 0 0 0 0 0 0 0 0 0 0 0 0 0 0 0 0 127 0" result="hardAlpha"/>
<feOffset dx="4.0673" dy="3.25384"/>
<feGaussianBlur stdDeviation="3.66057"/>
<feComposite in2="hardAlpha" operator="arithmetic" k2="-1" k3="1"/>
<feColorMatrix type="matrix" values="0 0 0 0 0.0784314 0 0 0 0 0.0588235 0 0 0 0 1 0 0 0 0.47 0"/>
<feBlend mode="normal" in2="effect2_innerShadow_221_343" result="effect3_innerShadow_221_343"/>
<feColorMatrix in="SourceAlpha" type="matrix" values="0 0 0 0 0 0 0 0 0 0 0 0 0 0 0 0 0 0 127 0" result="hardAlpha"/>
<feOffset dy="-4.0673"/>
<feGaussianBlur stdDeviation="3.25384"/>
<feComposite in2="hardAlpha" operator="arithmetic" k2="-1" k3="1"/>
<feColorMatrix type="matrix" values="0 0 0 0 0.0509804 0 0 0 0 1 0 0 0 0 0.313726 0 0 0 0.67 0"/>
<feBlend mode="normal" in2="effect3_innerShadow_221_343" result="effect4_innerShadow_221_343"/>
</filter>
<filter id="filter6_f_221_343" x="133.298" y="216.917" width="187.343" height="114.365" filterUnits="userSpaceOnUse" color-interpolation-filters="sRGB">
<feFlood flood-opacity="0" result="BackgroundImageFix"/>
<feBlend mode="normal" in="SourceGraphic" in2="BackgroundImageFix" result="shape"/>
<feGaussianBlur stdDeviation="11.3884" result="effect1_foregroundBlur_221_343"/>
</filter>
<filter id="filter7_f_221_343" x="178.995" y="385.425" width="119.336" height="51.288" filterUnits="userSpaceOnUse" color-interpolation-filters="sRGB">
<feFlood flood-opacity="0" result="BackgroundImageFix"/>
<feBlend mode="normal" in="SourceGraphic" in2="BackgroundImageFix" result="shape"/>
<feGaussianBlur stdDeviation="7.32114" result="effect1_foregroundBlur_221_343"/>
</filter>
<filter id="filter8_f_221_343" x="53.4967" y="-8.50333" width="374.007" height="142.639" filterUnits="userSpaceOnUse" color-interpolation-filters="sRGB">
<feFlood flood-opacity="0" result="BackgroundImageFix"/>
<feBlend mode="normal" in="SourceGraphic" in2="BackgroundImageFix" result="shape"/>
<feGaussianBlur stdDeviation="4.25166" result="effect1_foregroundBlur_221_343"/>
</filter>
<filter id="filter9_f_221_343" x="0.687538" y="9.75932" width="484.242" height="371.935" filterUnits="userSpaceOnUse" color-interpolation-filters="sRGB">
<feFlood flood-opacity="0" result="BackgroundImageFix"/>
<feBlend mode="normal" in="SourceGraphic" in2="BackgroundImageFix" result="shape"/>
<feGaussianBlur stdDeviation="45.0212" result="effect1_foregroundBlur_221_343"/>
</filter>
<filter id="filter10_f_221_343" x="6.30906" y="140.802" width="492.751" height="298.295" filterUnits="userSpaceOnUse" color-interpolation-filters="sRGB">
<feFlood flood-opacity="0" result="BackgroundImageFix"/>
<feBlend mode="normal" in="SourceGraphic" in2="BackgroundImageFix" result="shape"/>
<feGaussianBlur stdDeviation="10.6292" result="effect1_foregroundBlur_221_343"/>
</filter>
<filter id="filter11_f_221_343" x="123.368" y="-66.267" width="255.295" height="182.62" filterUnits="userSpaceOnUse" color-interpolation-filters="sRGB">
<feFlood flood-opacity="0" result="BackgroundImageFix"/>
<feBlend mode="normal" in="SourceGraphic" in2="BackgroundImageFix" result="shape"/>
<feGaussianBlur stdDeviation="32.1045" result="effect1_foregroundBlur_221_343"/>
</filter>
<filter id="filter12_f_221_343" x="-22.3644" y="-87.6586" width="512.739" height="262.02" filterUnits="userSpaceOnUse" color-interpolation-filters="sRGB">
<feFlood flood-opacity="0" result="BackgroundImageFix"/>
<feBlend mode="normal" in="SourceGraphic" in2="BackgroundImageFix" result="shape"/>
<feGaussianBlur stdDeviation="17.7153" result="effect1_foregroundBlur_221_343"/>
</filter>
<filter id="filter13_f_221_343" x="77.2129" y="80.2276" width="329.209" height="219.29" filterUnits="userSpaceOnUse" color-interpolation-filters="sRGB">
<feFlood flood-opacity="0" result="BackgroundImageFix"/>
<feBlend mode="normal" in="SourceGraphic" in2="BackgroundImageFix" result="shape"/>
<feGaussianBlur stdDeviation="14.1722" result="effect1_foregroundBlur_221_343"/>
</filter>
<filter id="filter14_f_221_343" x="109.543" y="236.462" width="264.437" height="54.6699" filterUnits="userSpaceOnUse" color-interpolation-filters="sRGB">
<feFlood flood-opacity="0" result="BackgroundImageFix"/>
<feBlend mode="normal" in="SourceGraphic" in2="BackgroundImageFix" result="shape"/>
<feGaussianBlur stdDeviation="6.3775" result="effect1_foregroundBlur_221_343"/>
</filter>
<filter id="filter15_f_221_343" x="98.4835" y="177.53" width="290.794" height="84.3734" filterUnits="userSpaceOnUse" color-interpolation-filters="sRGB">
<feFlood flood-opacity="0" result="BackgroundImageFix"/>
<feBlend mode="normal" in="SourceGraphic" in2="BackgroundImageFix" result="shape"/>
<feGaussianBlur stdDeviation="13.8895" result="effect1_foregroundBlur_221_343"/>
</filter>
<filter id="filter16_d_221_343" x="231.956" y="210.705" width="25.478" height="17.4441" filterUnits="userSpaceOnUse" color-interpolation-filters="sRGB">
<feFlood flood-opacity="0" result="BackgroundImageFix"/>
<feColorMatrix in="SourceAlpha" type="matrix" values="0 0 0 0 0 0 0 0 0 0 0 0 0 0 0 0 0 0 127 0" result="hardAlpha"/>
<feOffset dy="3.00071"/>
<feGaussianBlur stdDeviation="2.00047"/>
<feComposite in2="hardAlpha" operator="out"/>
<feColorMatrix type="matrix" values="0 0 0 0 0 0 0 0 0 0 0 0 0 0 0 0 0 0 0.32 0"/>
<feBlend mode="normal" in2="BackgroundImageFix" result="effect1_dropShadow_221_343"/>
<feBlend mode="normal" in="SourceGraphic" in2="effect1_dropShadow_221_343" result="shape"/>
</filter>
<filter id="filter17_dd_221_343" x="221.591" y="228.065" width="46.9377" height="24.1485" filterUnits="userSpaceOnUse" color-interpolation-filters="sRGB">
<feFlood flood-opacity="0" result="BackgroundImageFix"/>
<feColorMatrix in="SourceAlpha" type="matrix" values="0 0 0 0 0 0 0 0 0 0 0 0 0 0 0 0 0 0 127 0" result="hardAlpha"/>
<feOffset dy="-1.51102"/>
<feGaussianBlur stdDeviation="1.88878"/>
<feComposite in2="hardAlpha" operator="out"/>
<feColorMatrix type="matrix" values="0 0 0 0 0.0784314 0 0 0 0 0.054902 0 0 0 0 0.745098 0 0 0 0.3 0"/>
<feBlend mode="normal" in2="BackgroundImageFix" result="effect1_dropShadow_221_343"/>
<feColorMatrix in="SourceAlpha" type="matrix" values="0 0 0 0 0 0 0 0 0 0 0 0 0 0 0 0 0 0 127 0" result="hardAlpha"/>
<feOffset dy="1.32214"/>
<feGaussianBlur stdDeviation="1.22771"/>
<feComposite in2="hardAlpha" operator="out"/>
<feColorMatrix type="matrix" values="0 0 0 0 0.678431 0 0 0 0 0.494118 0 0 0 0 1 0 0 0 0.65 0"/>
<feBlend mode="normal" in2="effect1_dropShadow_221_343" result="effect2_dropShadow_221_343"/>
<feBlend mode="normal" in="SourceGraphic" in2="effect2_dropShadow_221_343" result="shape"/>
</filter>
<filter id="filter18_d_221_343" x="271.837" y="166.901" width="33.408" height="50.5858" filterUnits="userSpaceOnUse" color-interpolation-filters="sRGB">
<feFlood flood-opacity="0" result="BackgroundImageFix"/>
<feColorMatrix in="SourceAlpha" type="matrix" values="0 0 0 0 0 0 0 0 0 0 0 0 0 0 0 0 0 0 127 0" result="hardAlpha"/>
<feOffset dy="-2.9957"/>
<feGaussianBlur stdDeviation="1.49785"/>
<feComposite in2="hardAlpha" operator="out"/>
<feColorMatrix type="matrix" values="0 0 0 0 1 0 0 0 0 1 0 0 0 0 1 0 0 0 0.25 0"/>
<feBlend mode="normal" in2="BackgroundImageFix" result="effect1_dropShadow_221_343"/>
<feBlend mode="normal" in="SourceGraphic" in2="effect1_dropShadow_221_343" result="shape"/>
</filter>
<filter id="filter19_d_221_343" x="177.507" y="166.901" width="33.408" height="50.5858" filterUnits="userSpaceOnUse" color-interpolation-filters="sRGB">
<feFlood flood-opacity="0" result="BackgroundImageFix"/>
<feColorMatrix in="SourceAlpha" type="matrix" values="0 0 0 0 0 0 0 0 0 0 0 0 0 0 0 0 0 0 127 0" result="hardAlpha"/>
<feOffset dy="-2.9957"/>
<feGaussianBlur stdDeviation="1.49785"/>
<feComposite in2="hardAlpha" operator="out"/>
<feColorMatrix type="matrix" values="0 0 0 0 1 0 0 0 0 1 0 0 0 0 1 0 0 0 0.25 0"/>
<feBlend mode="normal" in2="BackgroundImageFix" result="effect1_dropShadow_221_343"/>
<feBlend mode="normal" in="SourceGraphic" in2="effect1_dropShadow_221_343" result="shape"/>
</filter>
<radialGradient id="paint0_radial_221_343" cx="0" cy="0" r="1" gradientUnits="userSpaceOnUse" gradientTransform="translate(244.897 321.653) rotate(96.7464) scale(100.821 71.3241)">
<stop offset="0.00110658" stop-color="#8E47FE"/>
<stop offset="0.14" stop-color="#8A45FE"/>
<stop offset="0.28" stop-color="#7E3FFE"/>
<stop offset="0.453125" stop-color="#6B36FE"/>
<stop offset="0.583333" stop-color="#4F2AFE"/>
<stop offset="0.744792" stop-color="#2C1AFE"/>
<stop offset="0.864583" stop-color="#140FFF"/>
<stop offset="0.989583" stop-color="#140FFF"/>
</radialGradient>
<radialGradient id="paint1_radial_221_343" cx="0" cy="0" r="1" gradientUnits="userSpaceOnUse" gradientTransform="translate(243.383 329.479) rotate(94.8711) scale(107.6 83.2031)">
<stop offset="0.00110658" stop-color="#8E47FE"/>
<stop offset="0.14" stop-color="#8A45FE"/>
<stop offset="0.28" stop-color="#7E3FFE"/>
<stop offset="0.453125" stop-color="#6B36FE"/>
<stop offset="0.583333" stop-color="#4F2AFE"/>
<stop offset="0.744792" stop-color="#2C1AFE"/>
<stop offset="0.864583" stop-color="#140FFF"/>
<stop offset="0.989583" stop-color="#140FFF"/>
</radialGradient>
<radialGradient id="paint2_radial_221_343" cx="0" cy="0" r="1" gradientUnits="userSpaceOnUse" gradientTransform="translate(256.919 323.572) rotate(93.4132) scale(107.994 83.5806)">
<stop offset="0.00110658" stop-color="#8E47FE"/>
<stop offset="0.14" stop-color="#8A45FE"/>
<stop offset="0.28" stop-color="#7E3FFE"/>
<stop offset="0.453125" stop-color="#6B36FE"/>
<stop offset="0.583333" stop-color="#4F2AFE"/>
<stop offset="0.744792" stop-color="#2C1AFE"/>
<stop offset="0.864583" stop-color="#140FFF"/>
<stop offset="0.989583" stop-color="#140FFF"/>
</radialGradient>
<radialGradient id="paint3_radial_221_343" cx="0" cy="0" r="1" gradientUnits="userSpaceOnUse" gradientTransform="translate(244.897 321.653) rotate(96.7464) scale(100.821 71.3241)">
<stop offset="0.00110658" stop-color="#8E47FE"/>
<stop offset="0.14" stop-color="#8A45FE"/>
<stop offset="0.28" stop-color="#7E3FFE"/>
<stop offset="0.453125" stop-color="#6B36FE"/>
<stop offset="0.583333" stop-color="#4F2AFE"/>
<stop offset="0.744792" stop-color="#2C1AFE"/>
<stop offset="0.864583" stop-color="#140FFF"/>
<stop offset="0.989583" stop-color="#140FFF"/>
</radialGradient>
<radialGradient id="paint4_radial_221_343" cx="0" cy="0" r="1" gradientUnits="userSpaceOnUse" gradientTransform="translate(247.681 155.438) rotate(91.8169) scale(239.411 240.374)">
<stop offset="0.00110658" stop-color="#8E47FE"/>
<stop offset="0.14" stop-color="#8A45FE"/>
<stop offset="0.28" stop-color="#7E3FFE"/>
<stop offset="0.453125" stop-color="#6B36FE"/>
<stop offset="0.583333" stop-color="#4F2AFE"/>
<stop offset="0.744792" stop-color="#2C1AFE"/>
<stop offset="0.864583" stop-color="#140FFF"/>
<stop offset="1" stop-color="#140FFF"/>
</radialGradient>
<radialGradient id="paint5_radial_221_343" cx="0" cy="0" r="1" gradientUnits="userSpaceOnUse" gradientTransform="translate(240.09 39.103) rotate(90) scale(77.5567 144.224)">
<stop stop-color="white"/>
<stop offset="1" stop-color="white" stop-opacity="0"/>
</radialGradient>
<radialGradient id="paint6_radial_221_343" cx="0" cy="0" r="1" gradientUnits="userSpaceOnUse" gradientTransform="translate(247.681 80.629) rotate(93.4995) scale(124.357 240.047)">
<stop offset="0.00110658" stop-color="#8E47FE"/>
<stop offset="0.14" stop-color="#8A45FE"/>
<stop offset="0.28" stop-color="#7E3FFE"/>
<stop offset="0.453125" stop-color="#6B36FE"/>
<stop offset="0.583333" stop-color="#4F2AFE"/>
<stop offset="0.744792" stop-color="#2C1AFE"/>
<stop offset="0.864583" stop-color="#140FFF"/>
<stop offset="1" stop-color="#140FFF"/>
</radialGradient>
<radialGradient id="paint7_radial_221_343" cx="0" cy="0" r="1" gradientUnits="userSpaceOnUse" gradientTransform="translate(240.09 20.2836) rotate(90) scale(40.2303 144.224)">
<stop stop-color="white"/>
<stop offset="1" stop-color="white" stop-opacity="0"/>
</radialGradient>
<radialGradient id="paint8_radial_221_343" cx="0" cy="0" r="1" gradientUnits="userSpaceOnUse" gradientTransform="translate(242.407 185.242) rotate(90) scale(305.649 350.201)">
<stop/>
<stop offset="1" stop-opacity="0"/>
</radialGradient>
<radialGradient id="paint9_radial_221_343" cx="0" cy="0" r="1" gradientUnits="userSpaceOnUse" gradientTransform="translate(241.228 28.8154) rotate(90) scale(197.591 367.849)">
<stop offset="0.00110658" stop-color="#8E47FE"/>
<stop offset="0.14" stop-color="#8A45FE"/>
<stop offset="0.28" stop-color="#7E3FFE"/>
<stop offset="0.453125" stop-color="#6B36FE"/>
<stop offset="0.583333" stop-color="#4F2AFE"/>
<stop offset="0.744792" stop-color="#2C1AFE"/>
<stop offset="0.864583" stop-color="#140FFF"/>
<stop offset="0.989583" stop-color="#140FFF"/>
</radialGradient>
<radialGradient id="paint10_radial_221_343" cx="0" cy="0" r="1" gradientUnits="userSpaceOnUse" gradientTransform="translate(258.325 50.4269) rotate(90) scale(54.5434 69.2772)">
<stop stop-color="white"/>
<stop offset="1" stop-color="white" stop-opacity="0"/>
</radialGradient>
<radialGradient id="paint11_radial_221_343" cx="0" cy="0" r="1" gradientUnits="userSpaceOnUse" gradientTransform="translate(241.228 205.264) rotate(-90) scale(153.417 176.147)">
<stop offset="0.0104167" stop-color="#8A40FF"/>
<stop offset="1" stop-color="#140FFF"/>
</radialGradient>
<linearGradient id="paint12_linear_221_343" x1="241.817" y1="205.824" x2="241.817" y2="98.7954" gradientUnits="userSpaceOnUse">
<stop stop-color="#FF99D0"/>
<stop offset="1" stop-color="#FF99D0" stop-opacity="0"/>
</linearGradient>
<linearGradient id="paint13_linear_221_343" x1="248.024" y1="208.437" x2="245.789" y2="222.706" gradientUnits="userSpaceOnUse">
<stop stop-color="#8E47FE"/>
<stop offset="0.14" stop-color="#8A45FE"/>
<stop offset="0.28" stop-color="#7E3FFE"/>
<stop offset="0.42" stop-color="#6B36FE"/>
<stop offset="0.56" stop-color="#4F2AFE"/>
<stop offset="0.69" stop-color="#2C1AFE"/>
<stop offset="0.77" stop-color="#140FFF"/>
<stop offset="0.989583" stop-color="#140FFF"/>
</linearGradient>
<linearGradient id="paint14_linear_221_343" x1="245.111" y1="220.42" x2="245.111" y2="217.152" gradientUnits="userSpaceOnUse">
<stop stop-color="#0DFF50"/>
<stop offset="1" stop-color="#0DFF50" stop-opacity="0"/>
</linearGradient>
<linearGradient id="paint15_linear_221_343" x1="290.7" y1="184.857" x2="290.022" y2="228.625" gradientUnits="userSpaceOnUse">
<stop stop-color="#160647"/>
<stop offset="1" stop-color="#1E07B1" stop-opacity="0"/>
</linearGradient>
<linearGradient id="paint16_linear_221_343" x1="4.97731" y1="0" x2="4.97731" y2="8.71858" gradientUnits="userSpaceOnUse">
<stop stop-color="#6613C8"/>
<stop offset="1" stop-color="#6613C8" stop-opacity="0"/>
</linearGradient>
<linearGradient id="paint17_linear_221_343" x1="196.37" y1="184.857" x2="195.691" y2="228.625" gradientUnits="userSpaceOnUse">
<stop stop-color="#160647"/>
<stop offset="1" stop-color="#1E07B1" stop-opacity="0"/>
</linearGradient>
<linearGradient id="paint18_linear_221_343" x1="4.97731" y1="0" x2="4.97731" y2="8.71858" gradientUnits="userSpaceOnUse">
<stop stop-color="#6613C8"/>
<stop offset="1" stop-color="#6613C8" stop-opacity="0"/>
</linearGradient>
</defs>
</svg>
